<svg xmlns="http://www.w3.org/2000/svg" width="512" height="512" viewBox="0 0 512 512" role="img" aria-labelledby="title desc">
  <title id="title">Fiorote Control positivo</title>
  <desc id="desc">Rosto feliz profissional para a marca Fiorote Control</desc>
  <defs>
    <linearGradient id="coin" x1="86" y1="70" x2="430" y2="440" gradientUnits="userSpaceOnUse">
      <stop offset="0" stop-color="#34d399"/>
      <stop offset="0.46" stop-color="#10b981"/>
      <stop offset="1" stop-color="#047857"/>
    </linearGradient>
    <linearGradient id="shine" x1="116" y1="86" x2="324" y2="300" gradientUnits="userSpaceOnUse">
      <stop offset="0" stop-color="#ffffff" stop-opacity="0.7"/>
      <stop offset="1" stop-color="#ffffff" stop-opacity="0"/>
    </linearGradient>
    <filter id="shadow" x="-20%" y="-18%" width="140%" height="140%" color-interpolation-filters="sRGB">
      <feDropShadow dx="0" dy="18" stdDeviation="18" flood-color="#064e3b" flood-opacity="0.22"/>
    </filter>
  </defs>
  <rect width="512" height="512" rx="112" fill="#f8fafc"/>
  <circle cx="256" cy="256" r="180" fill="url(#coin)" filter="url(#shadow)"/>
  <circle cx="256" cy="256" r="145" fill="none" stroke="#dcfce7" stroke-width="18" opacity="0.45"/>
  <path d="M133 197c28-74 92-103 148-100 36 2 67 14 94 35" fill="none" stroke="url(#shine)" stroke-width="28" stroke-linecap="round"/>
  <circle cx="196" cy="226" r="23" fill="#052e1b"/>
  <circle cx="316" cy="226" r="23" fill="#052e1b"/>
  <path d="M182 300c26 44 122 44 148 0" fill="none" stroke="#052e1b" stroke-width="26" stroke-linecap="round"/>
  <path d="M256 127v258" fill="none" stroke="#ecfdf5" stroke-width="18" stroke-linecap="round" opacity="0.28"/>
  <path d="M214 181h96" fill="none" stroke="#ecfdf5" stroke-width="18" stroke-linecap="round" opacity="0.28"/>
  <path d="M214 331h96" fill="none" stroke="#ecfdf5" stroke-width="18" stroke-linecap="round" opacity="0.28"/>
</svg>
